:version 1.10
:name ASF
:units
  mass 1
  length 1
  angle deg
:documentation
  ASF file generated by Kaydara
:root
  axis xyz
  order  tx ty tz rx ry rz
  position 0 0 0
  orientation 0 0 0
:bonedata
  begin
    id 1
    name RightUpLegDummy
    direction -0.718183 -0.695806 0.00816078
    length 4.904
    axis 0 0 0 xyz
  end
  begin
    id 2
    name RightUpLeg
    direction 3.53989e-006 -0.995788 0.0916897
    length 17.4976
    axis -3.49089 -0.000906621 0.000287158 xyz
    dof rx ry rz
  end
  begin
    id 3
    name RightLeg
    direction 0.00371093 -0.995096 -0.0988418
    length 16.5821
    axis 3.68512 0.0193738 -0.131023 xyz
    dof rx ry rz
  end
  begin
    id 4
    name RightFoot
    direction 0.000791514 -0.46099 0.887405
    length 3.77069
    axis 4.84075e-005 -0.120479 -0.188788 xyz
    dof rx ry rz
  end
  begin
    id 5
    name RightToes
    direction 0.00124746 -0.014064 0.9999
    length 3.85082
    axis 0.00048216 0.542163 -0.142577 xyz
    dof rx ry rz
  end
  begin
    id 6
    name SpineDummy
    direction 8.36599e-015 1 5.97571e-016
    length 4.6813
    axis 0 0 0 xyz
  end
  begin
    id 7
    name Spine
    direction -4.63632e-008 0.999988 0.00495137
    length 10.1015
    axis -0.00138897 0.000121419 3.25764e-006 xyz
    dof rx ry rz
  end
  begin
    id 8
    name Spine1
    direction 0 0 0
    length 0
    axis -0.00138896 0.000121452 2.39764e-006 xyz
    dof rx ry rz
  end
  begin
    id 9
    name HEadDummy
    direction -3.91456e-008 0.999999 0.00127422
    length 3.43865
    axis -0.00138896 0.000121452 2.39764e-006 xyz
  end
  begin
    id 10
    name HEad
    direction -0.0222688 0.980941 0.193023
    length 5.12695
    axis -0.00138895 0.000121452 2.39764e-006 xyz
    dof rx ry rz
  end
  begin
    id 11
    name LeftShoulder1Dummy
    direction 0.998891 -0.0402508 -0.0244456
    length 3.5433
    axis -0.00138896 0.000121452 2.39764e-006 xyz
  end
  begin
    id 12
    name LeftShoulder1
    direction 0.99951 -0.000327743 0.0313091
    length 4.05031
    axis -0.00138896 0.000121452 2.39764e-006 xyz
    dof rx ry rz
  end
  begin
    id 13
    name LeftArm
    direction 0.998561 -0.00100054 -0.0536182
    length 10.3537
    axis -23.1894 0.134784 0.96751 xyz
    dof rx ry rz
  end
  begin
    id 14
    name LeftForeArm
    direction 0.998903 0.00866434 0.046012
    length 8.70632
    axis -9.91835 -0.06569 -0.177792 xyz
    dof rx ry rz
  end
  begin
    id 15
    name LeftHand
    direction 0.992938 -0.0411636 0.11126
    length 5.32135
    axis -0.00960227 -0.00340091 0.185174 xyz
    dof rx ry rz
  end
  begin
    id 16
    name RightShoulderDummy
    direction -0.998891 -0.0402509 -0.0244414
    length 3.5433
    axis -0.00138896 0.000121452 2.39764e-006 xyz
  end
  begin
    id 17
    name RightShoulder
    direction -0.99951 -0.000327827 0.0313133
    length 4.05031
    axis 0.215806 0.000203644 -0.00680151 xyz
    dof rx ry rz
  end
  begin
    id 18
    name RightArm
    direction -0.998573 -0.000999583 -0.053403
    length 10.3947
    axis -23.2009 -0.134239 -0.9641 xyz
    dof rx ry rz
  end
  begin
    id 19
    name RightForeArm
    direction -0.998898 0.00868026 0.0461306
    length 8.68355
    axis -9.92322 0.0658061 0.178869 xyz
    dof rx ry rz
  end
  begin
    id 20
    name RightHand
    direction -0.992843 -0.0414603 0.112003
    length 5.28593
    axis -0.00960634 0.00330671 -0.185226 xyz
    dof rx ry rz
  end
  begin
    id 21
    name LeftUpLegDummy
    direction 0.718183 -0.695806 0.00816078
    length 4.904
    axis 0 0 0 xyz
  end
  begin
    id 22
    name LeftUpLeg
    direction -6.8115e-006 -0.995793 0.0916336
    length 17.4976
    axis -3.48766 0.00143441 -0.000523914 xyz
    dof rx ry rz
  end
  begin
    id 23
    name LeftLeg
    direction -0.00601357 -0.995091 -0.0987824
    length 16.5821
    axis 3.68177 -0.00654038 -0.00028478 xyz
    dof rx ry rz
  end
  begin
    id 24
    name LeftFoot
    direction -0.00417578 -0.460984 0.887399
    length 3.77069
    axis 1.87232e-006 4.66002e-005 -8.1837e-006 xyz
    dof rx ry rz
  end
  begin
    id 25
    name LeftToes
    direction 0.00818058 -0.00485161 0.999955
    length 3.85048
    axis 1.06246e-005 4.65855e-005 -8.18502e-006 xyz
    dof rx ry rz
  end
:hierarchy
  begin
    root RightUpLegDummy SpineDummy LeftUpLegDummy
    RightUpLegDummy RightUpLeg
    RightUpLeg RightLeg
    RightLeg RightFoot
    RightFoot RightToes
    SpineDummy Spine
    Spine Spine1
    Spine1 HEadDummy LeftShoulder1Dummy RightShoulderDummy
    HEadDummy HEad
    LeftShoulder1Dummy LeftShoulder1
    LeftShoulder1 LeftArm
    LeftArm LeftForeArm
    LeftForeArm LeftHand
    RightShoulderDummy RightShoulder
    RightShoulder RightArm
    RightArm RightForeArm
    RightForeArm RightHand
    LeftUpLegDummy LeftUpLeg
    LeftUpLeg LeftLeg
    LeftLeg LeftFoot
    LeftFoot LeftToes
  end

:SAMPLES-PER-SECOND 24
:FULLY-SPECIFIED
:DEGREES
1
root  -1.56739 37.3917 29.5767 171.601 53.1317 175.09
RightUpLeg  3.44635 -25.006 -24.4556
RightLeg  34.3098 4.98935 3.41855
RightFoot  -17.8511 1.09698 21.162
RightToes  -1.74623e-010 0 -2.59999e-017
Spine  4.06823 1.54105 -1.3281
Spine1  16.1925 1.81975 -1.40419
HEad  -25.9291 42.6314 -27.2797
LeftShoulder1  1.95672 -3.22775 -22.7779
LeftArm  9.14579 -2.70639 -38.7392
LeftForeArm  44.7543 -58.3182 -14.2196
LeftHand  0.195113 7.35908 12.7864
RightShoulder  3.15445 5.43151 29.3825
RightArm  -3.83895 0.545062 37.0194
RightForeArm  145.662 68.8599 151.748
RightHand  0.599619 -10.3083 -14.767
LeftUpLeg  -12.1756 10.1409 6.63111
LeftLeg  38.2399 -2.83336 -2.0283
LeftFoot  -14.0371 -0.073604 -6.75904
LeftToes  -6.27559e-011 -2.10356e-011 8.24929e-012
2
root  -1.28241 38.9015 29.3723 170.705 55.6617 174.608
RightUpLeg  4.95135 -20.822 -22.848
RightLeg  27.9224 3.38334 1.71206
RightFoot  -8.01647 -0.752607 22.8452
RightToes  -1.74623e-010 0 -2.59999e-017
Spine  3.15852 2.37069 1.28777
Spine1  16.0542 3.63086 -4.21548
HEad  -22.9702 44.4655 -26.6692
LeftShoulder1  2.02519 -3.26122 -23.6955
LeftArm  7.62927 4.21552 -41.6748
LeftForeArm  38.211 -54.9664 -12.7921
LeftHand  0.17806 6.75712 16.6993
RightShoulder  3.34147 5.68088 30.4817
RightArm  0.316583 -5.80524 41.0722
RightForeArm  143.278 69.1165 151.131
RightHand  0.405854 -9.91266 -11.2875
LeftUpLeg  -6.94971 11.4902 6.90706
LeftLeg  29.9601 -2.33469 -1.1083
LeftFoot  -5.96909 0.422078 -8.1242
LeftToes  -6.27559e-011 -2.10356e-011 8.24929e-012
3
root  -1.0002 40.5864 29.0852 170.704 56.9525 174.448
RightUpLeg  6.19084 -18.2087 -21.5199
RightLeg  21.1567 0.651481 0.0658113
RightFoot  5.74481 -3.20939 21.4007
RightToes  -1.74623e-010 0 -2.59999e-017
Spine  1.73055 2.64886 2.15301
Spine1  15.1574 4.07477 -4.7338
HEad  -18.2582 46.9867 -24.6534
LeftShoulder1  2.105 -3.24233 -25.0232
LeftArm  6.86168 13.0311 -42.1699
LeftForeArm  31.6126 -56.5079 -14.2832
LeftHand  -0.0928636 4.70369 13.5552
RightShoulder  3.37393 5.70257 30.7534
RightArm  6.0676 -11.407 41.3491
RightForeArm  143.844 64.6311 156.498
RightHand  0.114848 -8.51224 -5.68344
LeftUpLeg  -3.13135 13.1262 7.03778
LeftLeg  21.6049 -3.06511 -1.00135
LeftFoot  7.6566 1.36441 -8.42327
LeftToes  -6.27559e-011 -2.10356e-011 8.24929e-012
4
root  -0.889395 41.6628 28.9469 171.657 56.0858 174.58
RightUpLeg  5.71477 -16.4427 -20.133
RightLeg  17.978 -2.25194 -1.03868
RightFoot  14.6299 -3.71519 16.3673
RightToes  -1.74623e-010 0 -2.59999e-017
Spine  -0.108946 2.18882 0.836225
Spine1  15.1472 3.11278 -2.94449
HEad  -16.4815 47.9327 -23.4223
LeftShoulder1  2.16079 -3.47197 -24.7942
LeftArm  6.77916 19.9983 -43.3239
LeftForeArm  34.3048 -60.4945 -16.771
LeftHand  -0.195703 3.12243 9.47375
RightShoulder  3.13153 5.37925 29.325
RightArm  10.0304 -13.1039 40.7502
RightForeArm  146.346 58.8706 161.476
RightHand  -0.0317424 -5.95549 -0.262823
LeftUpLeg  -3.84088 12.4596 6.61088
LeftLeg  18.7724 -2.99256 -0.807938
LeftFoot  16.0727 1.88616 -8.13266
LeftToes  -6.27559e-011 -2.10356e-011 8.24929e-012
5
root  -0.927928 42.0417 28.958 171.564 55.9038 174.153
RightUpLeg  4.42467 -12.9687 -18.9528
RightLeg  18.2403 -0.242237 -0.294949
RightFoot  13.1299 -3.01941 14.2696
RightToes  -1.74623e-010 0 -2.59999e-017
Spine  -0.583657 2.30645 -0.271689
Spine1  15.9813 2.99083 -2.19314
HEad  -17.9663 47.1833 -23.682
LeftShoulder1  2.08147 -3.76201 -22.3371
LeftArm  8.77415 22.9728 -45.9057
LeftForeArm  39.4472 -64.2283 -19.5228
LeftHand  -0.224999 2.22729 8.00187
RightShoulder  2.7229 4.85633 26.5601
RightArm  9.3566 -11.4992 41.2542
RightForeArm  146.029 53.8799 164.414
RightHand  -0.0241196 -4.6342 0.484569
LeftUpLeg  -5.05484 11.6983 6.20653
LeftLeg  18.6114 -1.57753 -0.303212
LeftFoot  15.1699 1.4271 -6.42264
LeftToes  -6.27559e-011 -2.10356e-011 8.24929e-012
6
root  -1.06331 41.8545 29.0253 171.069 56.0458 174.069
RightUpLeg  3.52327 -10.242 -18.0554
RightLeg  19.442 6.24927 2.23696
RightFoot  8.89142 -2.72715 15.5683
RightToes  -1.74623e-010 0 -2.59999e-017
Spine  0.882591 2.41481 -0.368607
Spine1  15.8205 3.08213 -2.49404
HEad  -19.745 46.7149 -24.4527
LeftShoulder1  1.97631 -3.72601 -20.9399
LeftArm  12.2987 22.2089 -45.4906
LeftForeArm  42.7873 -67.6767 -23.2331
LeftHand  -0.15602 2.60449 6.0157
RightShoulder  2.53537 4.62638 25.1236
RightArm  4.85473 -7.21251 39.651
RightForeArm  140.874 50.8363 165.572
RightHand  -0.0334168 -5.04658 -3.60608
LeftUpLeg  -5.66261 10.6071 6.30695
LeftLeg  18.8695 -0.754314 0.00478768
LeftFoot  15.4556 1.03221 -4.73386
LeftToes  -6.27559e-011 -2.10356e-011 8.24929e-012
7
root  -1.20705 41.0189 29.0997 171.608 55.3843 174.712
RightUpLeg  1.91661 -8.51948 -17.0198
RightLeg  22.7137 10.315 4.50217
RightFoot  4.31713 -2.16059 15.8375
RightToes  -1.74623e-010 0 -2.59999e-017
Spine  2.13023 2.08952 -0.700086
Spine1  14.502 2.47949 -2.06944
HEad  -19.0514 46.8023 -23.461
LeftShoulder1  1.95672 -3.67512 -20.8567
LeftArm  14.3716 20.1591 -43.5708
LeftForeArm  45.1681 -69.8302 -26.2465
LeftHand  -0.121168 2.58096 4.55724
RightShoulder  2.59461 4.71408 25.5272
RightArm  -1.92301 -2.1485 35.8383
RightForeArm  133.895 52.5711 164.26
RightHand  -0.075354 -4.54928 -7.86579
LeftUpLeg  -7.60507 8.33556 6.94959
LeftLeg  22.1506 -1.5645 -0.36156
LeftFoot  14.4031 1.42706 -6.62846
LeftToes  -6.27559e-011 -2.10356e-011 8.24929e-012
8
root  -1.30338 39.5062 29.2018 171.652 55.7012 174.818
RightUpLeg  -0.138315 -7.07948 -16.6549
RightLeg  28.7303 10.0913 5.71631
RightFoot  -6.53359 -0.625474 13.5688
RightToes  -1.74623e-010 0 -2.59999e-017
Spine  2.40378 2.3443 -2.00705
Spine1  14.1829 2.18309 -0.744297
HEad  -18.2838 46.5961 -22.4447
LeftShoulder1  1.92092 -3.70454 -20.2045
LeftArm  14.6396 16.8572 -42.9402
LeftForeArm  42.6753 -69.9972 -26.9808
LeftHand  -0.167767 1.79012 5.20135
RightShoulder  2.61101 4.72084 25.7088
RightArm  -8.63041 3.19048 32.7372
RightForeArm  128.871 58.6392 160.185
RightHand  -0.14801 -4.04172 -11.5079
LeftUpLeg  -9.82536 9.18012 8.07215
LeftLeg  29.1029 -3.75318 -1.92184
LeftFoot  3.08953 1.23211 -9.83609
LeftToes  -6.27559e-011 -2.10356e-011 8.24929e-012
9
root  -1.45224 37.8274 29.3507 170.962 56.8416 174.983
RightUpLeg  -1.43381 -6.29988 -16.748
RightLeg  34.6272 9.32989 6.63977
RightFoot  -19.1134 0.704452 12.1068
RightToes  -1.74623e-010 0 -2.59999e-017
Spine  3.06383 2.6857 -2.81832
Spine1  15.6196 2.07626 0.26269
HEad  -21.4775 46.2587 -25.0165
LeftShoulder1  1.84857 -3.37241 -20.4645
LeftArm  13.151 10.3626 -41.5465
LeftForeArm  38.0445 -68.256 -24.8036
LeftHand  -0.129152 2.89806 5.31808
RightShoulder  2.62969 4.73275 25.9009
RightArm  -13.473 9.78407 31.0517
RightForeArm  127.935 65.6404 153.715
RightHand  0.189485 -6.67688 -17.3683
LeftUpLeg  -11.6933 12.3574 9.44249
LeftLeg  36.9477 -5.36706 -3.93386
LeftFoot  -9.3728 0.245883 -10.0246
LeftToes  -6.27559e-011 -2.10356e-011 8.24929e-012
10
root  -1.61546 37.0036 29.4402 171.229 56.395 175.944
RightUpLeg  -1.86579 -6.50649 -16.5342
RightLeg  37.4293 9.20028 7.2359
RightFoot  -23.9501 1.23408 12.5696
RightToes  -1.74623e-010 0 -2.59999e-017
Spine  3.691 2.08054 -2.11123
Spine1  17.1362 1.56018 -0.184697
HEad  -25.4438 45.824 -28.037
LeftShoulder1  1.85074 -3.03196 -21.9837
LeftArm  9.66204 4.5177 -40.9191
LeftForeArm  42.6911 -64.2572 -19.2152
LeftHand  0.000461072 5.89664 6.20612
RightShoulder  2.86224 5.03948 27.5326
RightArm  -14.0447 12.1843 32.195
RightForeArm  128.179 70.5324 146.759
RightHand  1.29762 -11.4854 -24.312
LeftUpLeg  -13.2932 12.1462 9.94154
LeftLeg  40.7732 -4.87161 -4.07217
LeftFoot  -13.3568 -0.0773209 -8.82385
LeftToes  -6.27559e-011 -2.10356e-011 8.24929e-012
